<?xml version="1.0" encoding="UTF-8"?>
<svg width="20" height="20" viewBox="0 0 20 20" fill="none" xmlns="http://www.w3.org/2000/svg">
    <path d="M18.5 0H1.5C0.675 0 0 0.675 0 1.5V18.5C0 19.325 0.675 20 1.5 20H18.5C19.325 20 20 19.325 20 18.5V1.5C20 0.675 19.325 0 18.5 0ZM6 17H3V7.5H6V17ZM4.5 6.25C3.5 6.25 2.75 5.5 2.75 4.5C2.75 3.5 3.5 2.75 4.5 2.75C5.5 2.75 6.25 3.5 6.25 4.5C6.25 5.5 5.5 6.25 4.5 6.25ZM17 17H14V12.25C14 9.75 11 9.875 11 12.25V17H8V7.5H11V9C12.4 6.825 17 6.625 17 11.5V17Z" fill="#0077B5"/>
</svg> 